{
	"patcher" : 	{
		"fileversion" : 1,
		"appversion" : 		{
			"major" : 8,
			"minor" : 5,
			"revision" : 6,
			"architecture" : "x64",
			"modernui" : 1
		}
,
		"classnamespace" : "box",
		"rect" : [ 34.0, 67.0, 1660.0, 822.0 ],
		"bglocked" : 0,
		"openinpresentation" : 0,
		"default_fontsize" : 11.0,
		"default_fontface" : 0,
		"default_fontname" : "Suisse Intl News",
		"gridonopen" : 1,
		"gridsize" : [ 15.0, 15.0 ],
		"gridsnaponopen" : 1,
		"objectsnaponopen" : 1,
		"statusbarvisible" : 2,
		"toolbarvisible" : 1,
		"lefttoolbarpinned" : 0,
		"toptoolbarpinned" : 0,
		"righttoolbarpinned" : 0,
		"bottomtoolbarpinned" : 0,
		"toolbars_unpinned_last_save" : 2,
		"tallnewobj" : 0,
		"boxanimatetime" : 200,
		"enablehscroll" : 1,
		"enablevscroll" : 1,
		"devicewidth" : 0.0,
		"description" : "",
		"digest" : "",
		"tags" : "",
		"style" : "my_style_05",
		"subpatcher_template" : "",
		"assistshowspatchername" : 0,
		"boxes" : [ 			{
				"box" : 				{
					"bgcolor" : [ 0.006069486029446, 0.0, 0.445977091789246, 1.0 ],
					"color" : [ 0.006007006391883, 0.0, 0.448855817317963, 1.0 ],
					"fontsize" : 5.892458383814561,
					"id" : "obj-55",
					"maxclass" : "newobj",
					"numinlets" : 0,
					"numoutlets" : 1,
					"outlettype" : [ "" ],
					"patching_rect" : [ 488.198816001415253, 558.056676054290051, 30.0, 14.0 ],
					"text" : "r gsw3R"
				}

			}
, 			{
				"box" : 				{
					"bgcolor" : [ 0.006069486029446, 0.0, 0.445977091789246, 1.0 ],
					"color" : [ 0.006007006391883, 0.0, 0.448855817317963, 1.0 ],
					"fontsize" : 5.892458383814561,
					"id" : "obj-54",
					"maxclass" : "newobj",
					"numinlets" : 0,
					"numoutlets" : 1,
					"outlettype" : [ "" ],
					"patching_rect" : [ 520.431480526924133, 709.842982653167837, 30.0, 14.0 ],
					"text" : "r gsw3R"
				}

			}
, 			{
				"box" : 				{
					"bgcolor" : [ 0.006069486029446, 0.0, 0.445977091789246, 1.0 ],
					"color" : [ 0.006007006391883, 0.0, 0.448855817317963, 1.0 ],
					"fontsize" : 6.12569251142511,
					"id" : "obj-53",
					"maxclass" : "newobj",
					"numinlets" : 0,
					"numoutlets" : 1,
					"outlettype" : [ "" ],
					"patching_rect" : [ 608.199684783816338, 745.991110712289924, 31.0, 15.0 ],
					"text" : "r gsw3R"
				}

			}
, 			{
				"box" : 				{
					"bgcolor" : [ 0.006069486029446, 0.0, 0.445977091789246, 1.0 ],
					"color" : [ 0.006007006391883, 0.0, 0.448855817317963, 1.0 ],
					"fontsize" : 6.12569251142511,
					"id" : "obj-52",
					"maxclass" : "newobj",
					"numinlets" : 0,
					"numoutlets" : 1,
					"outlettype" : [ "" ],
					"patching_rect" : [ 575.199684783816338, 745.991110712289924, 30.0, 15.0 ],
					"text" : "r gsw3L"
				}

			}
, 			{
				"box" : 				{
					"bgcolor" : [ 0.006069486029446, 0.0, 0.445977091789246, 1.0 ],
					"color" : [ 0.006007006391883, 0.0, 0.448855817317963, 1.0 ],
					"fontsize" : 6.12569251142511,
					"id" : "obj-47",
					"maxclass" : "newobj",
					"numinlets" : 0,
					"numoutlets" : 1,
					"outlettype" : [ "" ],
					"patching_rect" : [ 324.044620990753174, 563.305052915504461, 30.0, 15.0 ],
					"text" : "r gsw3L"
				}

			}
, 			{
				"box" : 				{
					"bgcolor" : [ 0.006069486029446, 0.0, 0.445977091789246, 1.0 ],
					"color" : [ 0.006007006391883, 0.0, 0.448855817317963, 1.0 ],
					"fontsize" : 6.12569251142511,
					"id" : "obj-40",
					"maxclass" : "newobj",
					"numinlets" : 0,
					"numoutlets" : 1,
					"outlettype" : [ "" ],
					"patching_rect" : [ 456.191451907157898, 558.056676054290051, 30.0, 15.0 ],
					"text" : "r gsw3L"
				}

			}
, 			{
				"box" : 				{
					"bgcolor" : [ 0.006069486029446, 0.0, 0.445977091789246, 1.0 ],
					"color" : [ 0.006007006391883, 0.0, 0.448855817317963, 1.0 ],
					"fontsize" : 8.948582464438951,
					"id" : "obj-39",
					"maxclass" : "newobj",
					"numinlets" : 1,
					"numoutlets" : 0,
					"patching_rect" : [ 628.82502555847168, 619.51033231365659, 43.0, 17.0 ],
					"text" : "s gsw3R"
				}

			}
, 			{
				"box" : 				{
					"bgcolor" : [ 0.2918786265, 0.2904968237, 0.1872336435, 1.0 ],
					"color" : [ 0.2918786265, 0.2904968237, 0.1872336435, 1.0 ],
					"fontsize" : 5.457668144530908,
					"id" : "obj-35",
					"maxclass" : "newobj",
					"numinlets" : 0,
					"numoutlets" : 1,
					"outlettype" : [ "" ],
					"patching_rect" : [ 324.044620990753174, 481.556676054289937, 27.0, 14.0 ],
					"text" : "r wrp03"
				}

			}
, 			{
				"box" : 				{
					"bgcolor" : [ 0.2918786265, 0.2904968237, 0.1872336435, 1.0 ],
					"color" : [ 0.2918786265, 0.2904968237, 0.1872336435, 1.0 ],
					"fontsize" : 5.457668144530908,
					"id" : "obj-33",
					"maxclass" : "newobj",
					"numinlets" : 0,
					"numoutlets" : 1,
					"outlettype" : [ "" ],
					"patching_rect" : [ 421.19928240776062, 499.556676054289937, 27.0, 14.0 ],
					"text" : "r wrp03"
				}

			}
, 			{
				"box" : 				{
					"bgcolor" : [ 0.2918786265, 0.2904968237, 0.1872336435, 1.0 ],
					"color" : [ 0.2918786265, 0.2904968237, 0.1872336435, 1.0 ],
					"fontsize" : 5.457668144530908,
					"id" : "obj-27",
					"maxclass" : "newobj",
					"numinlets" : 0,
					"numoutlets" : 1,
					"outlettype" : [ "" ],
					"patching_rect" : [ 248.905165195465088, 373.407417178153992, 27.0, 14.0 ],
					"text" : "r wrp03"
				}

			}
, 			{
				"box" : 				{
					"bgcolor" : [ 0.2918786265, 0.2904968237, 0.1872336435, 1.0 ],
					"color" : [ 0.2918786265, 0.2904968237, 0.1872336435, 1.0 ],
					"fontsize" : 5.457668144530908,
					"id" : "obj-15",
					"maxclass" : "newobj",
					"numinlets" : 0,
					"numoutlets" : 1,
					"outlettype" : [ "" ],
					"patching_rect" : [ 583.458819508552551, 537.018373801247776, 27.0, 14.0 ],
					"text" : "r wrp03"
				}

			}
, 			{
				"box" : 				{
					"bgcolor" : [ 0.2273331207, 0.0, 0.2273331207, 1.0 ],
					"fontsize" : 6.931846925759259,
					"id" : "obj-105",
					"maxclass" : "comment",
					"numinlets" : 1,
					"numoutlets" : 0,
					"patching_rect" : [ 354.01326310634613, 638.05087929332251, 40.0, 13.0 ],
					"text" : "P_RESET",
					"textcolor" : [ 1.0, 1.0, 1.0, 1.0 ]
				}

			}
, 			{
				"box" : 				{
					"bgcolor" : [ 0.4078431373, 0.2214491043, 0.09972238896, 1.0 ],
					"id" : "obj-102",
					"maxclass" : "comment",
					"numinlets" : 1,
					"numoutlets" : 0,
					"patching_rect" : [ 676.109419047832489, 711.527285397052765, 44.217391014099121, 17.0 ],
					"text" : "PITCH",
					"textcolor" : [ 1.0, 1.0, 1.0, 0.950512210264901 ]
				}

			}
, 			{
				"box" : 				{
					"bgcolor" : [ 0.3795971514, 0.2825089606, 0.3786546144, 1.0 ],
					"id" : "obj-101",
					"maxclass" : "comment",
					"numinlets" : 1,
					"numoutlets" : 0,
					"patching_rect" : [ 751.152892768383026, 364.170120000839233, 29.0, 17.0 ],
					"text" : "VEL",
					"textcolor" : [ 1.0, 1.0, 1.0, 0.950512210264901 ]
				}

			}
, 			{
				"box" : 				{
					"id" : "obj-34",
					"maxclass" : "newobj",
					"numinlets" : 0,
					"numoutlets" : 1,
					"outlettype" : [ "" ],
					"patching_rect" : [ 628.82502555847168, 537.018373801247776, 76.0, 19.0 ],
					"text" : "r transpose03"
				}

			}
, 			{
				"box" : 				{
					"fontsize" : 4.0,
					"id" : "obj-66",
					"maxclass" : "newobj",
					"numinlets" : 0,
					"numoutlets" : 1,
					"outlettype" : [ "" ],
					"patching_rect" : [ 853.914793163537979, 467.004217410376668, 24.0, 12.0 ],
					"text" : "r bang03"
				}

			}
, 			{
				"box" : 				{
					"fontname" : "Arial",
					"fontsize" : 13.0,
					"id" : "obj-45",
					"maxclass" : "newobj",
					"numinlets" : 2,
					"numoutlets" : 1,
					"outlettype" : [ "signal" ],
					"patcher" : 					{
						"fileversion" : 1,
						"appversion" : 						{
							"major" : 8,
							"minor" : 5,
							"revision" : 6,
							"architecture" : "x64",
							"modernui" : 1
						}
,
						"classnamespace" : "box",
						"rect" : [ 34.0, 128.0, 1660.0, 859.0 ],
						"bglocked" : 0,
						"openinpresentation" : 0,
						"default_fontsize" : 11.0,
						"default_fontface" : 0,
						"default_fontname" : "Suisse Intl News",
						"gridonopen" : 1,
						"gridsize" : [ 15.0, 15.0 ],
						"gridsnaponopen" : 1,
						"objectsnaponopen" : 1,
						"statusbarvisible" : 2,
						"toolbarvisible" : 1,
						"lefttoolbarpinned" : 0,
						"toptoolbarpinned" : 0,
						"righttoolbarpinned" : 0,
						"bottomtoolbarpinned" : 0,
						"toolbars_unpinned_last_save" : 0,
						"tallnewobj" : 0,
						"boxanimatetime" : 200,
						"enablehscroll" : 1,
						"enablevscroll" : 1,
						"devicewidth" : 0.0,
						"description" : "",
						"digest" : "",
						"tags" : "",
						"style" : "my_style_05",
						"subpatcher_template" : "",
						"assistshowspatchername" : 0,
						"boxes" : [ 							{
								"box" : 								{
									"fontname" : "Arial",
									"fontsize" : 12.0,
									"id" : "obj-31",
									"maxclass" : "newobj",
									"numinlets" : 1,
									"numoutlets" : 1,
									"outlettype" : [ "signal" ],
									"patching_rect" : [ 83.564102411270142, 71.102563858032227, 112.0, 22.0 ],
									"text" : "average~ 1024 abs"
								}

							}
, 							{
								"box" : 								{
									"fontname" : "Arial",
									"fontsize" : 12.0,
									"id" : "obj-28",
									"maxclass" : "newobj",
									"numinlets" : 2,
									"numoutlets" : 1,
									"outlettype" : [ "signal" ],
									"patching_rect" : [ 50.0, 173.256410837173462, 34.0, 22.0 ],
									"text" : "*~ 0."
								}

							}
, 							{
								"box" : 								{
									"fontname" : "Arial",
									"fontsize" : 12.0,
									"id" : "obj-16",
									"maxclass" : "newobj",
									"numinlets" : 2,
									"numoutlets" : 1,
									"outlettype" : [ "signal" ],
									"patching_rect" : [ 83.564102411270142, 137.10710084438324, 43.0, 22.0 ],
									"text" : "==~ 0."
								}

							}
, 							{
								"box" : 								{
									"comment" : "",
									"id" : "obj-32",
									"index" : 1,
									"maxclass" : "inlet",
									"numinlets" : 0,
									"numoutlets" : 1,
									"outlettype" : [ "signal" ],
									"patching_rect" : [ 50.0, 40.0, 25.0, 25.0 ]
								}

							}
, 							{
								"box" : 								{
									"comment" : "",
									"id" : "obj-33",
									"index" : 2,
									"maxclass" : "inlet",
									"numinlets" : 0,
									"numoutlets" : 1,
									"outlettype" : [ "signal" ],
									"patching_rect" : [ 83.564102411270142, 40.0, 25.0, 25.0 ]
								}

							}
, 							{
								"box" : 								{
									"comment" : "",
									"id" : "obj-34",
									"index" : 1,
									"maxclass" : "outlet",
									"numinlets" : 1,
									"numoutlets" : 0,
									"patching_rect" : [ 50.0, 204.743592739105225, 25.0, 25.0 ]
								}

							}
 ],
						"lines" : [ 							{
								"patchline" : 								{
									"destination" : [ "obj-28", 1 ],
									"midpoints" : [ 93.064102411270142, 163.435892820358276, 74.5, 163.435892820358276 ],
									"source" : [ "obj-16", 0 ]
								}

							}
, 							{
								"patchline" : 								{
									"destination" : [ "obj-34", 0 ],
									"source" : [ "obj-28", 0 ]
								}

							}
, 							{
								"patchline" : 								{
									"destination" : [ "obj-16", 0 ],
									"source" : [ "obj-31", 0 ]
								}

							}
, 							{
								"patchline" : 								{
									"destination" : [ "obj-28", 0 ],
									"source" : [ "obj-32", 0 ]
								}

							}
, 							{
								"patchline" : 								{
									"destination" : [ "obj-31", 0 ],
									"source" : [ "obj-33", 0 ]
								}

							}
 ],
						"styles" : [ 							{
								"name" : "my_style_05",
								"default" : 								{
									"accentcolor" : [ 0.059999998658895, 0.059999998658895, 0.059999998658895, 1.0 ],
									"bgcolor" : [ 0.059999998658895, 0.059999998658895, 0.059999998658895, 1.0 ],
									"bgfillcolor" : 									{
										"angle" : 270.0,
										"autogradient" : 0.0,
										"color" : [ 0.25, 0.25, 0.25, 1.0 ],
										"color1" : [ 0.25, 0.25, 0.25, 1.0 ],
										"color2" : [ 0.25, 0.25, 0.25, 1.0 ],
										"proportion" : 0.5,
										"type" : "gradient"
									}
,
									"clearcolor" : [ 0.0, 0.0, 0.0, 0.0 ],
									"color" : [ 0.6102400085, 0.888, 0.1803921569, 1.0 ],
									"editing_bgcolor" : [ 0.75, 0.75, 0.75, 1.0 ],
									"elementcolor" : [ 0.25, 0.25, 0.25, 1.0 ],
									"fontface" : [ 0 ],
									"fontname" : [ "Suisse Intl News" ],
									"fontsize" : [ 11.0 ],
									"locked_bgcolor" : [ 0.75, 0.75, 0.75, 1.0 ],
									"patchlinecolor" : [ 0.25, 0.25, 0.25, 1.0 ],
									"selectioncolor" : [ 0.686, 0.888, 0.1803921569, 1.0 ],
									"stripecolor" : [ 0.119999997317791, 0.119999997317791, 0.119999997317791, 1.0 ],
									"textcolor" : [ 0.0, 0.0, 0.0, 1.0 ],
									"textcolor_inverse" : [ 0.949999988079071, 0.949999988079071, 0.949999988079071, 1.0 ],
									"textjustification" : [ 0 ]
								}
,
								"comment" : 								{
									"clearcolor" : [ 0.0, 0.0, 0.0, 0.0 ],
									"fontface" : [ 0 ],
									"fontname" : [ "Suisse Intl News" ],
									"textjustification" : [ 0 ]
								}
,
								"attrui" : 								{
									"fontface" : [ 0 ],
									"fontname" : [ "Suisse Intl News" ],
									"selectioncolor" : [ 0.686, 0.888, 0.1803921569, 1.0 ],
									"textcolor_inverse" : [ 0.949999988079071, 0.949999988079071, 0.949999988079071, 1.0 ],
									"textjustification" : [ 0 ]
								}
,
								"message" : 								{
									"fontface" : [ 0 ],
									"fontname" : [ "Suisse Intl News" ],
									"textcolor_inverse" : [ 0.949999988079071, 0.949999988079071, 0.949999988079071, 1.0 ],
									"textjustification" : [ 0 ]
								}
,
								"newobj" : 								{
									"fontface" : [ 0 ],
									"fontname" : [ "Suisse Intl News" ],
									"textcolor_inverse" : [ 0.949999988079071, 0.949999988079071, 0.949999988079071, 1.0 ],
									"textjustification" : [ 0 ]
								}
,
								"nodes" : 								{
									"fontface" : [ 0 ],
									"fontname" : [ "Suisse Intl News" ],
									"selectioncolor" : [ 0.686, 0.888, 0.1803921569, 1.0 ]
								}
,
								"number" : 								{
									"fontface" : [ 0 ],
									"fontname" : [ "Suisse Intl News" ],
									"selectioncolor" : [ 0.686, 0.888, 0.1803921569, 1.0 ],
									"textcolor_inverse" : [ 0.949999988079071, 0.949999988079071, 0.949999988079071, 1.0 ]
								}
,
								"umenu" : 								{
									"fontface" : [ 0 ],
									"fontname" : [ "Suisse Intl News" ],
									"textcolor_inverse" : [ 0.949999988079071, 0.949999988079071, 0.949999988079071, 1.0 ],
									"textjustification" : [ 0 ]
								}
,
								"parentstyle" : "",
								"multi" : 0
							}
 ],
						"bgfillcolor_type" : "gradient",
						"bgfillcolor_color1" : [ 0.435294, 0.462745, 0.498039, 1.0 ],
						"bgfillcolor_color2" : [ 0.290196, 0.309804, 0.301961, 1.0 ],
						"bgfillcolor_color" : [ 0.290196, 0.309804, 0.301961, 1.0 ]
					}
,
					"patching_rect" : [ 361.426557540893555, 1098.176473140716553, 62.0, 23.0 ],
					"saved_object_attributes" : 					{
						"description" : "",
						"digest" : "",
						"fontname" : "Suisse Intl News",
						"fontsize" : 11.0,
						"globalpatchername" : "",
						"style" : "my_style_05",
						"tags" : ""
					}
,
					"text" : "p ifMono"
				}

			}
, 			{
				"box" : 				{
					"id" : "obj-14",
					"maxclass" : "newobj",
					"numinlets" : 1,
					"numoutlets" : 2,
					"outlettype" : [ "bang", "" ],
					"patching_rect" : [ 827.893420845270157, 431.530533576300741, 29.5, 19.0 ],
					"text" : "t b l"
				}

			}
, 			{
				"box" : 				{
					"bgcolor" : [ 0.006069486029446, 0.0, 0.445977091789246, 1.0 ],
					"color" : [ 0.006007006391883, 0.0, 0.448855817317963, 1.0 ],
					"fontsize" : 6.12569251142511,
					"id" : "obj-17",
					"maxclass" : "newobj",
					"numinlets" : 0,
					"numoutlets" : 1,
					"outlettype" : [ "" ],
					"patching_rect" : [ 290.610686480998993, 481.556676054289937, 30.0, 15.0 ],
					"text" : "r gsw3L"
				}

			}
, 			{
				"box" : 				{
					"bgcolor" : [ 0.2918786265, 0.2904968237, 0.1872336435, 1.0 ],
					"color" : [ 0.2918786265, 0.2904968237, 0.1872336435, 1.0 ],
					"fontsize" : 5.457668144530908,
					"id" : "obj-86",
					"maxclass" : "newobj",
					"numinlets" : 0,
					"numoutlets" : 1,
					"outlettype" : [ "" ],
					"patching_rect" : [ 543.226593911647797, 381.907417178153992, 27.0, 14.0 ],
					"text" : "r wrp03"
				}

			}
, 			{
				"box" : 				{
					"bgcolor" : [ 0.1132938957, 0.2267812291, 0.1093413105, 1.0 ],
					"color" : [ 0.1132938957, 0.2267812291, 0.1093413105, 1.0 ],
					"id" : "obj-74",
					"maxclass" : "newobj",
					"numinlets" : 0,
					"numoutlets" : 1,
					"outlettype" : [ "" ],
					"patching_rect" : [ 409.405165195465088, 659.187920749187469, 42.0, 19.0 ],
					"text" : "r set03"
				}

			}
, 			{
				"box" : 				{
					"bgcolor" : [ 0.1132938957, 0.2267812291, 0.1093413105, 1.0 ],
					"color" : [ 0.11329389572594, 0.226781229076742, 0.109341310464689, 1.0 ],
					"fontsize" : 7.890797523093875,
					"id" : "obj-73",
					"maxclass" : "newobj",
					"numinlets" : 1,
					"numoutlets" : 0,
					"patching_rect" : [ 783.877808958292007, 499.556676054289937, 34.0, 16.0 ],
					"text" : "s set03"
				}

			}
, 			{
				"box" : 				{
					"id" : "obj-68",
					"maxclass" : "button",
					"numinlets" : 1,
					"numoutlets" : 1,
					"outlettype" : [ "bang" ],
					"parameter_enable" : 0,
					"patching_rect" : [ 499.405165195465088, 709.638169541954881, 15.852941170334816, 15.852941170334816 ]
				}

			}
, 			{
				"box" : 				{
					"bgcolor" : [ 0.006069486029446, 0.0, 0.445977091789246, 1.0 ],
					"color" : [ 0.006007006391883, 0.0, 0.448855817317963, 1.0 ],
					"fontsize" : 8.948582464438951,
					"id" : "obj-56",
					"maxclass" : "newobj",
					"numinlets" : 1,
					"numoutlets" : 0,
					"patching_rect" : [ 583.458819508552551, 619.51033231365659, 41.0, 17.0 ],
					"text" : "s gsw3L"
				}

			}
, 			{
				"box" : 				{
					"bgcolor" : [ 0.2800409226, 0.4442826598, 0.5600818452, 1.0 ],
					"color" : [ 0.2800409226, 0.4442826598, 0.5600818452, 1.0 ],
					"id" : "obj-51",
					"maxclass" : "newobj",
					"numinlets" : 0,
					"numoutlets" : 1,
					"outlettype" : [ "" ],
					"patching_rect" : [ 294.610686480998993, 624.013570785522461, 48.0, 19.0 ],
					"text" : "r time03"
				}

			}
, 			{
				"box" : 				{
					"bgcolor" : [ 0.2800409226, 0.4442826598, 0.5600818452, 1.0 ],
					"color" : [ 0.280040922619048, 0.444282659761044, 0.560081845238095, 1.0 ],
					"id" : "obj-50",
					"maxclass" : "newobj",
					"numinlets" : 1,
					"numoutlets" : 0,
					"patching_rect" : [ 914.630114197731018, 553.556676054289937, 50.0, 19.0 ],
					"text" : "s time03"
				}

			}
, 			{
				"box" : 				{
					"id" : "obj-26",
					"maxclass" : "button",
					"numinlets" : 1,
					"numoutlets" : 1,
					"outlettype" : [ "bang" ],
					"parameter_enable" : 0,
					"patching_rect" : [ 290.610686480998993, 499.556676054289937, 16.0, 16.0 ]
				}

			}
, 			{
				"box" : 				{
					"id" : "obj-10",
					"maxclass" : "newobj",
					"numinlets" : 2,
					"numoutlets" : 1,
					"outlettype" : [ "" ],
					"patching_rect" : [ 499.405165195465088, 770.133387118577957, 57.0, 19.0 ],
					"text" : "transratio"
				}

			}
, 			{
				"box" : 				{
					"id" : "obj-9",
					"maxclass" : "newobj",
					"numinlets" : 2,
					"numoutlets" : 1,
					"outlettype" : [ "int" ],
					"patching_rect" : [ 499.405165195465088, 742.49111071228981, 40.026315331459045, 19.0 ],
					"text" : "+"
				}

			}
, 			{
				"box" : 				{
					"id" : "obj-2",
					"maxclass" : "newobj",
					"numinlets" : 1,
					"numoutlets" : 1,
					"outlettype" : [ "" ],
					"patching_rect" : [ 421.19928240776062, 524.556676054289937, 118.0, 19.0 ],
					"text" : "if $i1 == 0 then bang"
				}

			}
, 			{
				"box" : 				{
					"id" : "obj-104",
					"maxclass" : "newobj",
					"numinlets" : 2,
					"numoutlets" : 1,
					"outlettype" : [ "int" ],
					"patching_rect" : [ 248.905165195465088, 399.907417178153992, 29.5, 19.0 ],
					"text" : "+ 1"
				}

			}
, 			{
				"box" : 				{
					"id" : "obj-100",
					"maxclass" : "gswitch2",
					"numinlets" : 2,
					"numoutlets" : 2,
					"outlettype" : [ "", "" ],
					"parameter_enable" : 0,
					"patching_rect" : [ 583.458819508552551, 575.693039202979207, 64.366206049919128, 31.368200659751892 ]
				}

			}
, 			{
				"box" : 				{
					"id" : "obj-98",
					"maxclass" : "newobj",
					"numinlets" : 2,
					"numoutlets" : 1,
					"outlettype" : [ "int" ],
					"patching_rect" : [ 265.405165195465088, 559.805052915504575, 57.0, 19.0 ],
					"text" : "+"
				}

			}
, 			{
				"box" : 				{
					"id" : "obj-97",
					"maxclass" : "newobj",
					"numinlets" : 2,
					"numoutlets" : 1,
					"outlettype" : [ "int" ],
					"patching_rect" : [ 543.226593911647797, 742.49111071228981, 29.5, 19.0 ],
					"text" : "int"
				}

			}
, 			{
				"box" : 				{
					"id" : "obj-96",
					"maxclass" : "newobj",
					"numinlets" : 2,
					"numoutlets" : 1,
					"outlettype" : [ "int" ],
					"patching_rect" : [ 421.19928240776062, 554.556676054289937, 29.5, 19.0 ],
					"text" : "int"
				}

			}
, 			{
				"box" : 				{
					"id" : "obj-89",
					"maxclass" : "newobj",
					"numinlets" : 1,
					"numoutlets" : 1,
					"outlettype" : [ "" ],
					"patching_rect" : [ 543.226593911647797, 399.907417178153992, 109.0, 19.0 ],
					"text" : "if $i1 == 1 then bang"
				}

			}
, 			{
				"box" : 				{
					"id" : "obj-88",
					"maxclass" : "newobj",
					"numinlets" : 1,
					"numoutlets" : 1,
					"outlettype" : [ "" ],
					"patching_rect" : [ 324.044620990753174, 499.556676054289937, 90.0, 19.0 ],
					"text" : "if $i1 == 1 then 0"
				}

			}
, 			{
				"box" : 				{
					"fontsize" : 6.510598421633309,
					"id" : "obj-38",
					"maxclass" : "message",
					"numinlets" : 2,
					"numoutlets" : 1,
					"outlettype" : [ "" ],
					"patching_rect" : [ 429.19928240776062, 432.91859465837473, 16.657534211874008, 15.0 ],
					"text" : "0"
				}

			}
, 			{
				"box" : 				{
					"id" : "obj-25",
					"maxclass" : "newobj",
					"numinlets" : 2,
					"numoutlets" : 1,
					"outlettype" : [ "signal" ],
					"patching_rect" : [ 330.405165195465088, 992.697201013565063, 38.594834804534912, 19.0 ],
					"text" : "*~"
				}

			}
, 			{
				"box" : 				{
					"id" : "obj-22",
					"maxclass" : "newobj",
					"numinlets" : 2,
					"numoutlets" : 1,
					"outlettype" : [ "signal" ],
					"patching_rect" : [ 200.405165195465088, 992.697201013565063, 38.594834804534912, 19.0 ],
					"text" : "*~"
				}

			}
, 			{
				"box" : 				{
					"id" : "obj-30",
					"maxclass" : "newobj",
					"numinlets" : 1,
					"numoutlets" : 2,
					"outlettype" : [ "bang", "bang" ],
					"patching_rect" : [ 855.127808958292007, 740.557201087474823, 42.0, 19.0 ],
					"text" : "edge~"
				}

			}
, 			{
				"box" : 				{
					"id" : "obj-29",
					"maxclass" : "newobj",
					"numinlets" : 1,
					"numoutlets" : 2,
					"outlettype" : [ "signal", "signal" ],
					"patching_rect" : [ 200.405165195465088, 880.523699820041656, 149.0, 19.0 ],
					"text" : "mc.unpack~"
				}

			}
, 			{
				"box" : 				{
					"id" : "obj-8",
					"maxclass" : "newobj",
					"numinlets" : 1,
					"numoutlets" : 1,
					"outlettype" : [ "" ],
					"patching_rect" : [ 430.806889057159424, 701.744005799293518, 27.0, 19.0 ],
					"text" : "in 4"
				}

			}
, 			{
				"box" : 				{
					"id" : "obj-63",
					"maxclass" : "message",
					"numinlets" : 2,
					"numoutlets" : 1,
					"outlettype" : [ "" ],
					"patching_rect" : [ 855.127808958292007, 765.557201087474823, 34.0, 19.0 ],
					"text" : "clear"
				}

			}
, 			{
				"box" : 				{
					"id" : "obj-58",
					"maxclass" : "newobj",
					"numinlets" : 1,
					"numoutlets" : 0,
					"patching_rect" : [ 330.405165195465088, 1132.869204878807068, 41.0, 19.0 ],
					"saved_object_attributes" : 					{
						"attr_comment" : ""
					}
,
					"text" : "out~ 2"
				}

			}
, 			{
				"box" : 				{
					"id" : "obj-49",
					"maxclass" : "newobj",
					"numinlets" : 3,
					"numoutlets" : 1,
					"outlettype" : [ "multichannelsignal" ],
					"patching_rect" : [ 200.405165195465088, 847.875161528587341, 149.0, 19.0 ],
					"text" : "mc.selector~ 2 @chans 2"
				}

			}
, 			{
				"box" : 				{
					"id" : "obj-48",
					"maxclass" : "newobj",
					"numinlets" : 2,
					"numoutlets" : 1,
					"outlettype" : [ "multichannelsignal" ],
					"patching_rect" : [ 330.405165195465088, 806.425466790542487, 188.0, 19.0 ],
					"text" : "mc.pfft~ gizmo03 4096 4 @chans 2"
				}

			}
, 			{
				"box" : 				{
					"bgcolor" : [ 0.0, 0.0, 0.0, 1.0 ],
					"blinkcolor" : [ 0.0, 0.0, 0.0, 1.0 ],
					"id" : "obj-46",
					"maxclass" : "button",
					"numinlets" : 1,
					"numoutlets" : 1,
					"outlettype" : [ "bang" ],
					"outlinecolor" : [ 0.0, 0.0, 0.0, 1.0 ],
					"parameter_enable" : 0,
					"patching_rect" : [ 1572.263435065746307, 1210.793307781219482, 217.835602343082428, 217.835602343082428 ]
				}

			}
, 			{
				"box" : 				{
					"fontsize" : 4.0,
					"id" : "obj-44",
					"maxclass" : "newobj",
					"numinlets" : 1,
					"numoutlets" : 1,
					"outlettype" : [ "" ],
					"patching_rect" : [ 997.594410518805489, 740.557201087474823, 40.944878756999969, 12.0 ],
					"text" : "loadmess mute 1"
				}

			}
, 			{
				"box" : 				{
					"id" : "obj-43",
					"maxclass" : "newobj",
					"numinlets" : 2,
					"numoutlets" : 1,
					"outlettype" : [ "float" ],
					"patching_rect" : [ 771.033792853355408, 689.531058609485626, 36.0, 19.0 ],
					"text" : "/ 127."
				}

			}
, 			{
				"box" : 				{
					"id" : "obj-42",
					"maxclass" : "newobj",
					"numinlets" : 1,
					"numoutlets" : 4,
					"outlettype" : [ "float", "float", "float", "float" ],
					"patching_rect" : [ 834.167037978768349, 689.531058609485626, 208.399735376238823, 19.0 ],
					"text" : "unpack f f f f"
				}

			}
, 			{
				"box" : 				{
					"id" : "obj-41",
					"maxclass" : "newobj",
					"numinlets" : 1,
					"numoutlets" : 1,
					"outlettype" : [ "" ],
					"patching_rect" : [ 834.167037978768349, 664.531058609485626, 29.126338839530945, 19.0 ],
					"saved_object_attributes" : 					{
						"attr_comment" : ""
					}
,
					"text" : "in 3"
				}

			}
, 			{
				"box" : 				{
					"id" : "obj-37",
					"maxclass" : "newobj",
					"numinlets" : 5,
					"numoutlets" : 4,
					"outlettype" : [ "signal", "signal", "", "" ],
					"patching_rect" : [ 771.033792853355408, 715.557201087474823, 271.532980501651764, 19.0 ],
					"text" : "adsr~"
				}

			}
, 			{
				"box" : 				{
					"fontsize" : 11.198158310195234,
					"id" : "obj-36",
					"maxclass" : "newobj",
					"numinlets" : 2,
					"numoutlets" : 1,
					"outlettype" : [ "float" ],
					"patching_rect" : [ 914.630114197731018, 524.056676054289937, 47.896551758050919, 20.0 ],
					"text" : "!/ 1000."
				}

			}
, 			{
				"box" : 				{
					"id" : "obj-24",
					"maxclass" : "newobj",
					"numinlets" : 2,
					"numoutlets" : 1,
					"outlettype" : [ "multichannelsignal" ],
					"patching_rect" : [ 265.405165195465088, 740.143217206001282, 163.0, 19.0 ],
					"text" : "mc.pack~ @chans 2"
				}

			}
, 			{
				"box" : 				{
					"id" : "obj-23",
					"maxclass" : "newobj",
					"numinlets" : 3,
					"numoutlets" : 2,
					"outlettype" : [ "signal", "signal" ],
					"patching_rect" : [ 265.405165195465088, 701.744005799293518, 163.0, 19.0 ],
					"text" : "wavefaderms #1.1"
				}

			}
, 			{
				"box" : 				{
					"id" : "obj-21",
					"maxclass" : "newobj",
					"numinlets" : 2,
					"numoutlets" : 1,
					"outlettype" : [ "float" ],
					"patching_rect" : [ 265.405165195465088, 624.013570785522461, 25.205521285533905, 19.0 ],
					"text" : "* 1."
				}

			}
, 			{
				"box" : 				{
					"id" : "obj-20",
					"maxclass" : "newobj",
					"numinlets" : 2,
					"numoutlets" : 1,
					"outlettype" : [ "signal" ],
					"patching_rect" : [ 265.405165195465088, 659.187920749187469, 133.521392345428467, 19.0 ],
					"text" : "phasor~"
				}

			}
, 			{
				"box" : 				{
					"id" : "obj-19",
					"maxclass" : "newobj",
					"numinlets" : 1,
					"numoutlets" : 2,
					"outlettype" : [ "int", "float" ],
					"patching_rect" : [ 248.699643909931183, 489.766048708847165, 35.705521285533905, 19.0 ],
					"text" : "t 0 f"
				}

			}
, 			{
				"box" : 				{
					"id" : "obj-16",
					"maxclass" : "newobj",
					"numinlets" : 2,
					"numoutlets" : 1,
					"outlettype" : [ "" ],
					"patching_rect" : [ 265.405165195465088, 589.0, 57.0, 19.0 ],
					"text" : "transratio"
				}

			}
, 			{
				"box" : 				{
					"id" : "obj-13",
					"maxclass" : "newobj",
					"numinlets" : 3,
					"numoutlets" : 1,
					"outlettype" : [ "" ],
					"patching_rect" : [ 248.699643909931183, 451.918594658374786, 199.499638497829437, 19.0 ],
					"text" : "switch"
				}

			}
, 			{
				"box" : 				{
					"id" : "obj-6",
					"maxclass" : "newobj",
					"numinlets" : 2,
					"numoutlets" : 2,
					"outlettype" : [ "int", "int" ],
					"patching_rect" : [ 338.949463158845901, 369.907417178153992, 73.0, 19.0 ],
					"text" : "stripnote"
				}

			}
, 			{
				"box" : 				{
					"id" : "obj-4",
					"maxclass" : "newobj",
					"numinlets" : 1,
					"numoutlets" : 0,
					"patching_rect" : [ 200.0, 1132.869204878807068, 39.0, 19.0 ],
					"saved_object_attributes" : 					{
						"attr_comment" : ""
					}
,
					"text" : "out~ 1"
				}

			}
, 			{
				"box" : 				{
					"id" : "obj-11",
					"maxclass" : "newobj",
					"numinlets" : 1,
					"numoutlets" : 1,
					"outlettype" : [ "" ],
					"patching_rect" : [ 338.949463158845901, 293.98793238401413, 29.0, 19.0 ],
					"text" : "in 1"
				}

			}
, 			{
				"box" : 				{
					"fontsize" : 11.0,
					"id" : "obj-12",
					"maxclass" : "message",
					"numinlets" : 2,
					"numoutlets" : 1,
					"outlettype" : [ "" ],
					"patching_rect" : [ 783.877808958292007, 462.504217410376668, 38.0, 19.0 ],
					"text" : "set $1"
				}

			}
, 			{
				"box" : 				{
					"fontname" : "Arial",
					"fontsize" : 13.0,
					"id" : "obj-7",
					"maxclass" : "newobj",
					"numinlets" : 1,
					"numoutlets" : 2,
					"outlettype" : [ "int", "int" ],
					"patching_rect" : [ 338.949463158845901, 334.433733344078064, 73.0, 23.0 ],
					"text" : "unpack 0 0"
				}

			}
, 			{
				"box" : 				{
					"id" : "obj-1",
					"maxclass" : "newobj",
					"numinlets" : 1,
					"numoutlets" : 3,
					"outlettype" : [ "int", "int", "int" ],
					"patching_rect" : [ 939.389113187789917, 740.557201087474823, 56.0, 19.0 ],
					"text" : "thispoly~"
				}

			}
, 			{
				"box" : 				{
					"id" : "obj-5",
					"maxclass" : "newobj",
					"numinlets" : 1,
					"numoutlets" : 9,
					"outlettype" : [ "float", "list", "float", "float", "float", "float", "float", "", "int" ],
					"patching_rect" : [ 827.940458923578262, 499.556676054289937, 134.586207032203674, 19.0 ],
					"style" : "my_style_05",
					"text" : "info~ #1.1"
				}

			}
, 			{
				"box" : 				{
					"id" : "obj-3",
					"maxclass" : "newobj",
					"numinlets" : 1,
					"numoutlets" : 1,
					"outlettype" : [ "" ],
					"patching_rect" : [ 827.893420845270157, 391.084732616236806, 29.0, 19.0 ],
					"style" : "my_style_05",
					"text" : "in 2"
				}

			}
 ],
		"lines" : [ 			{
				"patchline" : 				{
					"destination" : [ "obj-48", 1 ],
					"source" : [ "obj-10", 0 ]
				}

			}
, 			{
				"patchline" : 				{
					"destination" : [ "obj-39", 0 ],
					"source" : [ "obj-100", 1 ]
				}

			}
, 			{
				"patchline" : 				{
					"destination" : [ "obj-56", 0 ],
					"source" : [ "obj-100", 0 ]
				}

			}
, 			{
				"patchline" : 				{
					"destination" : [ "obj-13", 0 ],
					"midpoints" : [ 258.405165195465088, 447.73040885354078, 258.199643909931183, 447.73040885354078 ],
					"order" : 0,
					"source" : [ "obj-104", 0 ]
				}

			}
, 			{
				"patchline" : 				{
					"destination" : [ "obj-49", 0 ],
					"midpoints" : [ 258.405165195465088, 441.598233437786462, 209.905165195465088, 441.598233437786462 ],
					"order" : 1,
					"source" : [ "obj-104", 0 ]
				}

			}
, 			{
				"patchline" : 				{
					"destination" : [ "obj-7", 0 ],
					"source" : [ "obj-11", 0 ]
				}

			}
, 			{
				"patchline" : 				{
					"destination" : [ "obj-5", 0 ],
					"midpoints" : [ 793.377808958292007, 491.543604815295339, 837.440458923578262, 491.543604815295339 ],
					"order" : 0,
					"source" : [ "obj-12", 0 ]
				}

			}
, 			{
				"patchline" : 				{
					"destination" : [ "obj-73", 0 ],
					"midpoints" : [ 793.377808958292007, 493.102398926308751, 793.377808958292007, 493.102398926308751 ],
					"order" : 1,
					"source" : [ "obj-12", 0 ]
				}

			}
, 			{
				"patchline" : 				{
					"destination" : [ "obj-19", 0 ],
					"source" : [ "obj-13", 0 ]
				}

			}
, 			{
				"patchline" : 				{
					"color" : [ 0.137569090136054, 0.137569090136054, 0.137569090136054, 1.0 ],
					"destination" : [ "obj-12", 0 ],
					"midpoints" : [ 847.893420845270157, 458.812952214768529, 793.377808958292007, 458.812952214768529 ],
					"source" : [ "obj-14", 1 ]
				}

			}
, 			{
				"patchline" : 				{
					"destination" : [ "obj-5", 0 ],
					"source" : [ "obj-14", 0 ]
				}

			}
, 			{
				"patchline" : 				{
					"color" : [ 0.2918786265, 0.2904968237, 0.1872336435, 1.0 ],
					"destination" : [ "obj-100", 0 ],
					"source" : [ "obj-15", 0 ]
				}

			}
, 			{
				"patchline" : 				{
					"destination" : [ "obj-21", 0 ],
					"source" : [ "obj-16", 0 ]
				}

			}
, 			{
				"patchline" : 				{
					"color" : [ 0.006792636749328, 0.01733322254366, 0.391985704936054, 1.0 ],
					"destination" : [ "obj-26", 0 ],
					"midpoints" : [ 300.110686480998993, 498.406758491839469, 300.110686480998993, 498.406758491839469 ],
					"source" : [ "obj-17", 0 ]
				}

			}
, 			{
				"patchline" : 				{
					"color" : [ 0.2273331207, 0.0, 0.2273331207, 1.0 ],
					"destination" : [ "obj-20", 1 ],
					"midpoints" : [ 258.199643909931183, 654.385958671569824, 389.426557540893555, 654.385958671569824 ],
					"source" : [ "obj-19", 0 ]
				}

			}
, 			{
				"patchline" : 				{
					"color" : [ 0.5, 0.5, 0.5, 1.0 ],
					"destination" : [ "obj-98", 0 ],
					"source" : [ "obj-19", 1 ]
				}

			}
, 			{
				"patchline" : 				{
					"destination" : [ "obj-96", 0 ],
					"midpoints" : [ 430.69928240776062, 552.067466938784719, 430.69928240776062, 552.067466938784719 ],
					"source" : [ "obj-2", 0 ]
				}

			}
, 			{
				"patchline" : 				{
					"destination" : [ "obj-23", 0 ],
					"source" : [ "obj-20", 0 ]
				}

			}
, 			{
				"patchline" : 				{
					"destination" : [ "obj-20", 0 ],
					"source" : [ "obj-21", 0 ]
				}

			}
, 			{
				"patchline" : 				{
					"destination" : [ "obj-4", 0 ],
					"order" : 1,
					"source" : [ "obj-22", 0 ]
				}

			}
, 			{
				"patchline" : 				{
					"color" : [ 0.0, 0.244180785263984, 0.560188137755102, 1.0 ],
					"destination" : [ "obj-45", 0 ],
					"midpoints" : [ 209.905165195465088, 1055.543979942798615, 370.926557540893555, 1055.543979942798615 ],
					"order" : 0,
					"source" : [ "obj-22", 0 ]
				}

			}
, 			{
				"patchline" : 				{
					"destination" : [ "obj-24", 1 ],
					"midpoints" : [ 418.905165195465088, 733.356547087430954, 418.905165195465088, 733.356547087430954 ],
					"source" : [ "obj-23", 1 ]
				}

			}
, 			{
				"patchline" : 				{
					"destination" : [ "obj-24", 0 ],
					"source" : [ "obj-23", 0 ]
				}

			}
, 			{
				"patchline" : 				{
					"destination" : [ "obj-48", 0 ],
					"midpoints" : [ 274.905165195465088, 799.990413151555003, 339.905165195465088, 799.990413151555003 ],
					"order" : 0,
					"source" : [ "obj-24", 0 ]
				}

			}
, 			{
				"patchline" : 				{
					"destination" : [ "obj-49", 1 ],
					"order" : 1,
					"source" : [ "obj-24", 0 ]
				}

			}
, 			{
				"patchline" : 				{
					"destination" : [ "obj-58", 0 ],
					"source" : [ "obj-25", 0 ]
				}

			}
, 			{
				"patchline" : 				{
					"color" : [ 0.300042480230331, 0.240033984184265, 0.240033984184265, 1.0 ],
					"destination" : [ "obj-98", 0 ],
					"midpoints" : [ 300.110686480998993, 535.366442212751508, 274.905165195465088, 535.366442212751508 ],
					"source" : [ "obj-26", 0 ]
				}

			}
, 			{
				"patchline" : 				{
					"destination" : [ "obj-104", 0 ],
					"source" : [ "obj-27", 0 ]
				}

			}
, 			{
				"patchline" : 				{
					"destination" : [ "obj-22", 0 ],
					"source" : [ "obj-29", 0 ]
				}

			}
, 			{
				"patchline" : 				{
					"destination" : [ "obj-25", 0 ],
					"order" : 1,
					"source" : [ "obj-29", 1 ]
				}

			}
, 			{
				"patchline" : 				{
					"color" : [ 0.585783302783966, 0.0, 0.086471125483513, 1.0 ],
					"destination" : [ "obj-45", 1 ],
					"midpoints" : [ 339.905165195465088, 959.62833034992218, 413.506656587123871, 959.62833034992218, 413.506656587123871, 1083.0, 413.926557540893555, 1083.0 ],
					"order" : 0,
					"source" : [ "obj-29", 1 ]
				}

			}
, 			{
				"patchline" : 				{
					"destination" : [ "obj-14", 0 ],
					"source" : [ "obj-3", 0 ]
				}

			}
, 			{
				"patchline" : 				{
					"destination" : [ "obj-63", 0 ],
					"source" : [ "obj-30", 0 ]
				}

			}
, 			{
				"patchline" : 				{
					"color" : [ 0.2918786265, 0.2904968237, 0.1872336435, 1.0 ],
					"destination" : [ "obj-2", 0 ],
					"source" : [ "obj-33", 0 ]
				}

			}
, 			{
				"patchline" : 				{
					"destination" : [ "obj-100", 1 ],
					"source" : [ "obj-34", 0 ]
				}

			}
, 			{
				"patchline" : 				{
					"destination" : [ "obj-88", 0 ],
					"source" : [ "obj-35", 0 ]
				}

			}
, 			{
				"patchline" : 				{
					"destination" : [ "obj-50", 0 ],
					"source" : [ "obj-36", 0 ]
				}

			}
, 			{
				"patchline" : 				{
					"destination" : [ "obj-1", 0 ],
					"source" : [ "obj-37", 2 ]
				}

			}
, 			{
				"patchline" : 				{
					"color" : [ 0.088441908359528, 0.088441908359528, 0.088441908359528, 1.0 ],
					"destination" : [ "obj-22", 1 ],
					"midpoints" : [ 780.533792853355408, 1018.034365296363831, 294.344637140631676, 1018.034365296363831, 294.344637140631676, 988.593753159046173, 229.5, 988.593753159046173 ],
					"order" : 1,
					"source" : [ "obj-37", 0 ]
				}

			}
, 			{
				"patchline" : 				{
					"color" : [ 0.088441908359528, 0.088441908359528, 0.088441908359528, 1.0 ],
					"destination" : [ "obj-25", 1 ],
					"midpoints" : [ 780.533792853355408, 1018.034365296363831, 371.599424809217453, 1018.034365296363831, 371.599424809217453, 988.593753159046173, 359.5, 988.593753159046173 ],
					"order" : 0,
					"source" : [ "obj-37", 0 ]
				}

			}
, 			{
				"patchline" : 				{
					"destination" : [ "obj-30", 0 ],
					"source" : [ "obj-37", 1 ]
				}

			}
, 			{
				"patchline" : 				{
					"destination" : [ "obj-13", 2 ],
					"source" : [ "obj-38", 0 ]
				}

			}
, 			{
				"patchline" : 				{
					"color" : [ 0.006792636749328, 0.01733322254366, 0.391985704936054, 1.0 ],
					"destination" : [ "obj-96", 1 ],
					"midpoints" : [ 465.691451907157898, 574.178594196131712, 455.082893639802933, 574.178594196131712, 455.082893639802933, 550.32961132555306, 441.19928240776062, 550.32961132555306 ],
					"source" : [ "obj-40", 0 ]
				}

			}
, 			{
				"patchline" : 				{
					"destination" : [ "obj-42", 0 ],
					"source" : [ "obj-41", 0 ]
				}

			}
, 			{
				"patchline" : 				{
					"destination" : [ "obj-37", 4 ],
					"source" : [ "obj-42", 3 ]
				}

			}
, 			{
				"patchline" : 				{
					"destination" : [ "obj-37", 3 ],
					"source" : [ "obj-42", 2 ]
				}

			}
, 			{
				"patchline" : 				{
					"destination" : [ "obj-37", 2 ],
					"source" : [ "obj-42", 1 ]
				}

			}
, 			{
				"patchline" : 				{
					"destination" : [ "obj-37", 1 ],
					"source" : [ "obj-42", 0 ]
				}

			}
, 			{
				"patchline" : 				{
					"destination" : [ "obj-37", 0 ],
					"source" : [ "obj-43", 0 ]
				}

			}
, 			{
				"patchline" : 				{
					"destination" : [ "obj-1", 0 ],
					"midpoints" : [ 1007.094410518805489, 754.960970312356949, 996.157191892465107, 754.960970312356949, 996.157191892465107, 738.410842716693878, 948.889113187789917, 738.410842716693878 ],
					"source" : [ "obj-44", 0 ]
				}

			}
, 			{
				"patchline" : 				{
					"color" : [ 0.585783302783966, 0.0, 0.086471125483513, 1.0 ],
					"destination" : [ "obj-58", 0 ],
					"midpoints" : [ 370.926557540893555, 1126.52283900976181, 339.905165195465088, 1126.52283900976181 ],
					"source" : [ "obj-45", 0 ]
				}

			}
, 			{
				"patchline" : 				{
					"color" : [ 0.006792636749328, 0.01733322254366, 0.391985704936054, 1.0 ],
					"destination" : [ "obj-98", 1 ],
					"midpoints" : [ 333.544620990753174, 580.410936871460081, 324.341528501361609, 580.410936871460081, 324.341528501361609, 557.69916895954907, 312.905165195465088, 557.69916895954907 ],
					"source" : [ "obj-47", 0 ]
				}

			}
, 			{
				"patchline" : 				{
					"destination" : [ "obj-49", 2 ],
					"source" : [ "obj-48", 0 ]
				}

			}
, 			{
				"patchline" : 				{
					"destination" : [ "obj-29", 0 ],
					"source" : [ "obj-49", 0 ]
				}

			}
, 			{
				"patchline" : 				{
					"destination" : [ "obj-36", 0 ],
					"source" : [ "obj-5", 6 ]
				}

			}
, 			{
				"patchline" : 				{
					"color" : [ 0.2800409226, 0.4442826598, 0.5600818452, 1.0 ],
					"destination" : [ "obj-21", 1 ],
					"midpoints" : [ 304.110686480998993, 648.689199030399323, 292.164904236793518, 648.689199030399323, 292.164904236793518, 622.374211966991425, 281.110686480998993, 622.374211966991425 ],
					"source" : [ "obj-51", 0 ]
				}

			}
, 			{
				"patchline" : 				{
					"color" : [ 0.006792636749328, 0.01733322254366, 0.391985704936054, 1.0 ],
					"destination" : [ "obj-97", 1 ],
					"midpoints" : [ 584.699684783816338, 763.818033516407127, 576.785865232348442, 763.818033516407127, 576.785865232348442, 739.042898237705231, 563.226593911647797, 739.042898237705231 ],
					"source" : [ "obj-52", 0 ]
				}

			}
, 			{
				"patchline" : 				{
					"color" : [ 0.006792636749328, 0.01733322254366, 0.391985704936054, 1.0 ],
					"destination" : [ "obj-97", 1 ],
					"midpoints" : [ 617.699684783816338, 766.186354964971656, 574.112177848815918, 766.186354964971656, 574.112177848815918, 741.106495648622513, 563.226593911647797, 741.106495648622513 ],
					"source" : [ "obj-53", 0 ]
				}

			}
, 			{
				"patchline" : 				{
					"color" : [ 0.006792636749328, 0.01733322254366, 0.391985704936054, 1.0 ],
					"destination" : [ "obj-9", 1 ],
					"source" : [ "obj-54", 0 ]
				}

			}
, 			{
				"patchline" : 				{
					"color" : [ 0.006792636749328, 0.01733322254366, 0.391985704936054, 1.0 ],
					"destination" : [ "obj-96", 1 ],
					"midpoints" : [ 497.698816001415253, 576.918378258040434, 452.075172811746597, 576.918378258040434, 452.075172811746597, 553.080485725691915, 441.19928240776062, 553.080485725691915 ],
					"source" : [ "obj-55", 0 ]
				}

			}
, 			{
				"patchline" : 				{
					"destination" : [ "obj-13", 1 ],
					"order" : 1,
					"source" : [ "obj-6", 0 ]
				}

			}
, 			{
				"patchline" : 				{
					"destination" : [ "obj-38", 0 ],
					"midpoints" : [ 348.449463158845901, 395.644587814807892, 435.528049513697624, 395.644587814807892 ],
					"order" : 0,
					"source" : [ "obj-6", 0 ]
				}

			}
, 			{
				"patchline" : 				{
					"color" : [ 0.259396344423294, 0.036926537752151, 0.058676846325397, 1.0 ],
					"destination" : [ "obj-48", 0 ],
					"midpoints" : [ 864.627808958292007, 799.991333939008655, 339.905165195465088, 799.991333939008655 ],
					"source" : [ "obj-63", 0 ]
				}

			}
, 			{
				"patchline" : 				{
					"color" : [ 0.116523171768707, 0.116523171768707, 0.116523171768707, 1.0 ],
					"destination" : [ "obj-5", 0 ],
					"midpoints" : [ 863.414793163537979, 488.085531437686086, 837.440458923578262, 488.085531437686086 ],
					"source" : [ "obj-66", 0 ]
				}

			}
, 			{
				"patchline" : 				{
					"destination" : [ "obj-9", 0 ],
					"source" : [ "obj-68", 0 ]
				}

			}
, 			{
				"patchline" : 				{
					"color" : [ 0.3795971514, 0.2825089606, 0.3786546144, 1.0 ],
					"destination" : [ "obj-43", 0 ],
					"midpoints" : [ 402.449463158845901, 363.982395976781845, 780.533792853355408, 363.982395976781845 ],
					"order" : 0,
					"source" : [ "obj-7", 1 ]
				}

			}
, 			{
				"patchline" : 				{
					"destination" : [ "obj-6", 1 ],
					"order" : 1,
					"source" : [ "obj-7", 1 ]
				}

			}
, 			{
				"patchline" : 				{
					"destination" : [ "obj-6", 0 ],
					"order" : 1,
					"source" : [ "obj-7", 0 ]
				}

			}
, 			{
				"patchline" : 				{
					"color" : [ 0.4078431373, 0.2214491043, 0.09972238896, 1.0 ],
					"destination" : [ "obj-9", 0 ],
					"midpoints" : [ 348.449463158845901, 363.5294269323349, 326.797399282455444, 363.5294269323349, 326.797399282455444, 285.490208029747009, 721.045781850814819, 285.490208029747009, 721.045781850814819, 733.369014978408813, 508.905165195465088, 733.369014978408813 ],
					"order" : 0,
					"source" : [ "obj-7", 0 ]
				}

			}
, 			{
				"patchline" : 				{
					"color" : [ 0.1132938957, 0.2267812291, 0.1093413105, 1.0 ],
					"destination" : [ "obj-23", 2 ],
					"source" : [ "obj-74", 0 ]
				}

			}
, 			{
				"patchline" : 				{
					"color" : [ 0.056723147630692, 0.056723147630692, 0.056723147630692, 1.0 ],
					"destination" : [ "obj-23", 1 ],
					"midpoints" : [ 440.306889057159424, 726.0, 428.325581312179565, 726.0, 428.325581312179565, 698.135209262371063, 346.905165195465088, 698.135209262371063 ],
					"source" : [ "obj-8", 0 ]
				}

			}
, 			{
				"patchline" : 				{
					"color" : [ 0.2918786265, 0.2904968237, 0.1872336435, 1.0 ],
					"destination" : [ "obj-89", 0 ],
					"source" : [ "obj-86", 0 ]
				}

			}
, 			{
				"patchline" : 				{
					"color" : [ 0.159842689456672, 0.200000002980232, 0.19625198705082, 1.0 ],
					"destination" : [ "obj-98", 1 ],
					"midpoints" : [ 333.544620990753174, 542.580777468076349, 312.905165195465088, 542.580777468076349 ],
					"order" : 0,
					"source" : [ "obj-88", 0 ]
				}

			}
, 			{
				"patchline" : 				{
					"color" : [ 0.159842689456672, 0.200000002980232, 0.19625198705082, 1.0 ],
					"destination" : [ "obj-98", 0 ],
					"midpoints" : [ 333.544620990753174, 542.035957695832849, 274.905165195465088, 542.035957695832849 ],
					"order" : 1,
					"source" : [ "obj-88", 0 ]
				}

			}
, 			{
				"patchline" : 				{
					"destination" : [ "obj-38", 0 ],
					"midpoints" : [ 552.726593911647797, 429.942386507987976, 435.528049513697624, 429.942386507987976 ],
					"order" : 1,
					"source" : [ "obj-89", 0 ]
				}

			}
, 			{
				"patchline" : 				{
					"destination" : [ "obj-97", 0 ],
					"order" : 0,
					"source" : [ "obj-89", 0 ]
				}

			}
, 			{
				"patchline" : 				{
					"destination" : [ "obj-10", 0 ],
					"source" : [ "obj-9", 0 ]
				}

			}
, 			{
				"patchline" : 				{
					"color" : [ 0.0, 0.0, 0.0, 1.0 ],
					"destination" : [ "obj-98", 1 ],
					"midpoints" : [ 430.69928240776062, 579.0, 362.916299372911453, 579.0, 362.916299372911453, 552.563706994056702, 312.905165195465088, 552.563706994056702 ],
					"source" : [ "obj-96", 0 ]
				}

			}
, 			{
				"patchline" : 				{
					"destination" : [ "obj-9", 1 ],
					"midpoints" : [ 552.726593911647797, 768.0, 541.223241567611694, 768.0, 541.223241567611694, 740.755905658006668, 529.931480526924133, 740.755905658006668 ],
					"source" : [ "obj-97", 0 ]
				}

			}
, 			{
				"patchline" : 				{
					"destination" : [ "obj-16", 0 ],
					"source" : [ "obj-98", 0 ]
				}

			}
 ],
		"styles" : [ 			{
				"name" : "myStyle_03",
				"attrui" : 				{
					"accentcolor" : [ 0.349019607843137, 0.349019607843137, 0.349019607843137, 1.0 ],
					"bgcolor" : [ 0.119999997317791, 0.119999997317791, 0.119999997317791, 1.0 ],
					"fontface" : [ 0 ],
					"fontname" : [ "Suisse Intl News" ],
					"selectioncolor" : [ 0.686, 0.888, 0.1803921569, 1.0 ],
					"textcolor_inverse" : [ 0.949999988079071, 0.949999988079071, 0.949999988079071, 1.0 ],
					"textjustification" : [ 0 ]
				}
,
				"default" : 				{
					"accentcolor" : [ 0.119999997317791, 0.119999997317791, 0.119999997317791, 1.0 ],
					"bgcolor" : [ 0.119999997317791, 0.119999997317791, 0.119999997317791, 1.0 ],
					"bgfillcolor" : 					{
						"color" : [ 0.0, 0.0, 0.0, 1.0 ],
						"color1" : [ 0.0, 0.0, 0.0, 1.0 ],
						"color2" : [ 0.0, 0.0, 0.0, 1.0 ],
						"type" : "gradient"
					}
,
					"clearcolor" : [ 1.0, 1.0, 1.0, 0.0 ],
					"color" : [ 0.686, 0.888, 0.1803921569, 1.0 ],
					"editing_bgcolor" : [ 0.699999988079071, 0.699999988079071, 0.699999988079071, 1.0 ],
					"elementcolor" : [ 0.043137254901961, 0.043137254901961, 0.043137254901961, 0.0 ],
					"fontface" : [ 0 ],
					"fontname" : [ "Suisse Intl News" ],
					"fontsize" : [ 11.0 ],
					"locked_bgcolor" : [ 0.699999988079071, 0.699999988079071, 0.699999988079071, 1.0 ],
					"patchlinecolor" : [ 0.23921568627451, 0.23921568627451, 0.23921568627451, 1.0 ],
					"selectioncolor" : [ 0.686, 0.888, 0.1803921569, 1.0 ],
					"stripecolor" : [ 0.119999997317791, 0.119999997317791, 0.119999997317791, 1.0 ],
					"textcolor" : [ 0.0, 0.0, 0.0, 1.0 ],
					"textcolor_inverse" : [ 0.949999988079071, 0.949999988079071, 0.949999988079071, 1.0 ],
					"textjustification" : [ 0 ]
				}
,
				"newobj" : 				{
					"accentcolor" : [ 0.119999997317791, 0.119999997317791, 0.119999997317791, 1.0 ],
					"bgcolor" : [ 0.119999997317791, 0.119999997317791, 0.119999997317791, 1.0 ],
					"fontface" : [ 0 ],
					"fontname" : [ "Suisse Intl News" ],
					"textcolor_inverse" : [ 0.949999988079071, 0.949999988079071, 0.949999988079071, 1.0 ],
					"textjustification" : [ 0 ]
				}
,
				"number" : 				{
					"accentcolor" : [ 0.349019607843137, 0.349019607843137, 0.349019607843137, 1.0 ],
					"bgcolor" : [ 0.119999997317791, 0.119999997317791, 0.119999997317791, 1.0 ],
					"fontface" : [ 0 ],
					"fontname" : [ "Suisse Intl News" ],
					"selectioncolor" : [ 0.686, 0.888, 0.1803921569, 1.0 ],
					"textcolor_inverse" : [ 0.949999988079071, 0.949999988079071, 0.949999988079071, 1.0 ]
				}
,
				"button" : 				{
					"bgcolor" : [ 0.119999997317791, 0.119999997317791, 0.119999997317791, 1.0 ],
					"color" : [ 0.119999997317791, 0.119999997317791, 0.119999997317791, 1.0 ],
					"elementcolor" : [ 0.349019607843137, 0.349019607843137, 0.349019607843137, 1.0 ]
				}
,
				"ezdac~" : 				{
					"bgcolor" : [ 0.119999997317791, 0.119999997317791, 0.119999997317791, 1.0 ],
					"color" : [ 0.119999997317791, 0.119999997317791, 0.119999997317791, 1.0 ],
					"elementcolor" : [ 0.043137254901961, 0.043137254901961, 0.043137254901961, 0.0 ]
				}
,
				"nodes" : 				{
					"bgcolor" : [ 0.0, 0.0, 0.0, 1.0 ],
					"color" : [ 0.0, 0.0, 0.0, 1.0 ],
					"elementcolor" : [ 0.043137254901961, 0.043137254901961, 0.043137254901961, 0.0 ],
					"fontface" : [ 0 ],
					"fontname" : [ "Suisse Intl News" ],
					"selectioncolor" : [ 0.686, 0.888, 0.1803921569, 1.0 ],
					"textcolor" : [ 0.0, 0.0, 0.0, 1.0 ]
				}
,
				"message" : 				{
					"bgfillcolor" : 					{
						"color" : [ 0.0, 0.0, 0.0, 1.0 ],
						"color1" : [ 0.0, 0.0, 0.0, 1.0 ],
						"color2" : [ 0.0, 0.0, 0.0, 1.0 ],
						"type" : "gradient"
					}
,
					"fontface" : [ 0 ],
					"fontname" : [ "Suisse Intl News" ],
					"textcolor_inverse" : [ 0.949999988079071, 0.949999988079071, 0.949999988079071, 1.0 ],
					"textjustification" : [ 0 ]
				}
,
				"umenu" : 				{
					"bgfillcolor" : 					{
						"color" : [ 0.0, 0.0, 0.0, 1.0 ],
						"color1" : [ 0.0, 0.0, 0.0, 1.0 ],
						"color2" : [ 0.0, 0.0, 0.0, 1.0 ],
						"type" : "color"
					}
,
					"color" : [ 0.119999997317791, 0.119999997317791, 0.119999997317791, 1.0 ],
					"elementcolor" : [ 0.043137254901961, 0.043137254901961, 0.043137254901961, 0.0 ],
					"fontface" : [ 0 ],
					"fontname" : [ "Suisse Intl News" ],
					"textcolor_inverse" : [ 0.949999988079071, 0.949999988079071, 0.949999988079071, 1.0 ],
					"textjustification" : [ 0 ]
				}
,
				"comment" : 				{
					"clearcolor" : [ 0.0, 0.0, 0.0, 0.0 ],
					"fontface" : [ 0 ],
					"fontname" : [ "Suisse Intl News" ],
					"textcolor" : [ 0.949999988079071, 0.949999988079071, 0.949999988079071, 1.0 ],
					"textjustification" : [ 0 ]
				}
,
				"parentstyle" : "",
				"multi" : 0
			}
, 			{
				"name" : "myStyle_04",
				"attrui" : 				{
					"accentcolor" : [ 0.349019607843137, 0.349019607843137, 0.349019607843137, 1.0 ],
					"bgcolor" : [ 0.119999997317791, 0.119999997317791, 0.119999997317791, 1.0 ],
					"fontface" : [ 0 ],
					"fontname" : [ "Suisse Intl News" ],
					"selectioncolor" : [ 0.686, 0.888, 0.1803921569, 1.0 ],
					"textcolor_inverse" : [ 0.949999988079071, 0.949999988079071, 0.949999988079071, 1.0 ],
					"textjustification" : [ 0 ]
				}
,
				"default" : 				{
					"accentcolor" : [ 0.119999997317791, 0.119999997317791, 0.119999997317791, 1.0 ],
					"bgcolor" : [ 0.119999997317791, 0.119999997317791, 0.119999997317791, 1.0 ],
					"bgfillcolor" : 					{
						"color" : [ 0.0, 0.0, 0.0, 1.0 ],
						"color1" : [ 0.0, 0.0, 0.0, 1.0 ],
						"color2" : [ 0.0, 0.0, 0.0, 1.0 ],
						"type" : "gradient"
					}
,
					"clearcolor" : [ 0.0, 0.0, 0.0, 0.0 ],
					"color" : [ 0.119999997317791, 0.119999997317791, 0.119999997317791, 1.0 ],
					"editing_bgcolor" : [ 0.699999988079071, 0.699999988079071, 0.699999988079071, 1.0 ],
					"elementcolor" : [ 0.349019607843137, 0.349019607843137, 0.349019607843137, 1.0 ],
					"fontface" : [ 0 ],
					"fontname" : [ "Suisse Intl News" ],
					"fontsize" : [ 11.0 ],
					"locked_bgcolor" : [ 0.699999988079071, 0.699999988079071, 0.699999988079071, 1.0 ],
					"patchlinecolor" : [ 0.23921568627451, 0.23921568627451, 0.23921568627451, 1.0 ],
					"selectioncolor" : [ 0.686, 0.888, 0.1803921569, 1.0 ],
					"stripecolor" : [ 0.119999997317791, 0.119999997317791, 0.119999997317791, 1.0 ],
					"textcolor" : [ 0.0, 0.0, 0.0, 1.0 ],
					"textcolor_inverse" : [ 0.949999988079071, 0.949999988079071, 0.949999988079071, 1.0 ],
					"textjustification" : [ 0 ]
				}
,
				"newobj" : 				{
					"accentcolor" : [ 0.119999997317791, 0.119999997317791, 0.119999997317791, 1.0 ],
					"bgcolor" : [ 0.119999997317791, 0.119999997317791, 0.119999997317791, 1.0 ],
					"fontface" : [ 0 ],
					"fontname" : [ "Suisse Intl News" ],
					"textcolor_inverse" : [ 0.949999988079071, 0.949999988079071, 0.949999988079071, 1.0 ],
					"textjustification" : [ 0 ]
				}
,
				"number" : 				{
					"accentcolor" : [ 0.349019607843137, 0.349019607843137, 0.349019607843137, 1.0 ],
					"bgcolor" : [ 0.119999997317791, 0.119999997317791, 0.119999997317791, 1.0 ],
					"fontface" : [ 0 ],
					"fontname" : [ "Suisse Intl News" ],
					"selectioncolor" : [ 0.686, 0.888, 0.1803921569, 1.0 ],
					"textcolor_inverse" : [ 0.949999988079071, 0.949999988079071, 0.949999988079071, 1.0 ]
				}
,
				"button" : 				{
					"bgcolor" : [ 0.119999997317791, 0.119999997317791, 0.119999997317791, 1.0 ],
					"color" : [ 0.119999997317791, 0.119999997317791, 0.119999997317791, 1.0 ],
					"elementcolor" : [ 0.349019607843137, 0.349019607843137, 0.349019607843137, 1.0 ]
				}
,
				"ezdac~" : 				{
					"bgcolor" : [ 0.119999997317791, 0.119999997317791, 0.119999997317791, 1.0 ],
					"color" : [ 0.119999997317791, 0.119999997317791, 0.119999997317791, 1.0 ],
					"elementcolor" : [ 0.043137254901961, 0.043137254901961, 0.043137254901961, 0.0 ]
				}
,
				"nodes" : 				{
					"bgcolor" : [ 0.0, 0.0, 0.0, 1.0 ],
					"color" : [ 0.0, 0.0, 0.0, 1.0 ],
					"elementcolor" : [ 0.043137254901961, 0.043137254901961, 0.043137254901961, 0.0 ],
					"fontface" : [ 0 ],
					"fontname" : [ "Suisse Intl News" ],
					"selectioncolor" : [ 0.686, 0.888, 0.1803921569, 1.0 ]
				}
,
				"message" : 				{
					"bgfillcolor" : 					{
						"color" : [ 0.0, 0.0, 0.0, 1.0 ],
						"color1" : [ 0.0, 0.0, 0.0, 1.0 ],
						"color2" : [ 0.0, 0.0, 0.0, 1.0 ],
						"type" : "gradient"
					}
,
					"fontface" : [ 0 ],
					"fontname" : [ "Suisse Intl News" ],
					"textcolor_inverse" : [ 0.949999988079071, 0.949999988079071, 0.949999988079071, 1.0 ],
					"textjustification" : [ 0 ]
				}
,
				"umenu" : 				{
					"bgfillcolor" : 					{
						"color" : [ 0.0, 0.0, 0.0, 1.0 ],
						"color1" : [ 0.0, 0.0, 0.0, 1.0 ],
						"color2" : [ 0.0, 0.0, 0.0, 1.0 ],
						"type" : "color"
					}
,
					"color" : [ 0.119999997317791, 0.119999997317791, 0.119999997317791, 1.0 ],
					"elementcolor" : [ 0.043137254901961, 0.043137254901961, 0.043137254901961, 0.0 ],
					"fontface" : [ 0 ],
					"fontname" : [ "Suisse Intl News" ],
					"textcolor_inverse" : [ 0.949999988079071, 0.949999988079071, 0.949999988079071, 1.0 ],
					"textjustification" : [ 0 ]
				}
,
				"comment" : 				{
					"clearcolor" : [ 0.0, 0.0, 0.0, 0.0 ],
					"fontface" : [ 0 ],
					"fontname" : [ "Suisse Intl News" ],
					"textjustification" : [ 0 ]
				}
,
				"parentstyle" : "",
				"multi" : 0
			}
, 			{
				"name" : "my_style_02",
				"attrui" : 				{
					"accentcolor" : [ 0.349019607843137, 0.349019607843137, 0.349019607843137, 1.0 ],
					"bgcolor" : [ 0.119999997317791, 0.119999997317791, 0.119999997317791, 1.0 ],
					"fontface" : [ 0 ],
					"fontname" : [ "Suisse Intl News" ],
					"fontsize" : [ 12.0 ],
					"selectioncolor" : [ 0.686, 0.888, 0.1803921569, 1.0 ],
					"textcolor_inverse" : [ 0.949999988079071, 0.949999988079071, 0.949999988079071, 1.0 ],
					"textjustification" : [ 0 ]
				}
,
				"default" : 				{
					"accentcolor" : [ 0.119999997317791, 0.119999997317791, 0.119999997317791, 1.0 ],
					"bgcolor" : [ 0.119999997317791, 0.119999997317791, 0.119999997317791, 1.0 ],
					"bgfillcolor" : 					{
						"angle" : 270.0,
						"autogradient" : 0.0,
						"color" : [ 0.119999997317791, 0.119999997317791, 0.119999997317791, 1.0 ],
						"color1" : [ 0.119999997317791, 0.119999997317791, 0.119999997317791, 1.0 ],
						"color2" : [ 0.119999997317791, 0.119999997317791, 0.119999997317791, 1.0 ],
						"proportion" : 0.5,
						"type" : "gradient"
					}
,
					"clearcolor" : [ 1.0, 1.0, 1.0, 0.0 ],
					"color" : [ 0.686, 0.888, 0.1803921569, 1.0 ],
					"editing_bgcolor" : [ 0.699999988079071, 0.699999988079071, 0.699999988079071, 1.0 ],
					"elementcolor" : [ 0.043137254901961, 0.043137254901961, 0.043137254901961, 0.0 ],
					"fontface" : [ 0 ],
					"fontname" : [ "Suisse Intl News" ],
					"fontsize" : [ 11.0 ],
					"locked_bgcolor" : [ 0.699999988079071, 0.699999988079071, 0.699999988079071, 1.0 ],
					"patchlinecolor" : [ 0.23921568627451, 0.23921568627451, 0.23921568627451, 1.0 ],
					"selectioncolor" : [ 0.686, 0.888, 0.1803921569, 1.0 ],
					"stripecolor" : [ 0.119999997317791, 0.119999997317791, 0.119999997317791, 1.0 ],
					"textcolor" : [ 0.0, 0.0, 0.0, 1.0 ],
					"textcolor_inverse" : [ 0.949999988079071, 0.949999988079071, 0.949999988079071, 1.0 ],
					"textjustification" : [ 0 ]
				}
,
				"newobj" : 				{
					"accentcolor" : [ 0.119999997317791, 0.119999997317791, 0.119999997317791, 1.0 ],
					"bgcolor" : [ 0.119999997317791, 0.119999997317791, 0.119999997317791, 1.0 ],
					"fontface" : [ 0 ],
					"fontname" : [ "Suisse Intl News" ],
					"fontsize" : [ 12.0 ],
					"textcolor_inverse" : [ 0.949999988079071, 0.949999988079071, 0.949999988079071, 1.0 ],
					"textjustification" : [ 0 ]
				}
,
				"number" : 				{
					"accentcolor" : [ 0.349019607843137, 0.349019607843137, 0.349019607843137, 1.0 ],
					"bgcolor" : [ 0.119999997317791, 0.119999997317791, 0.119999997317791, 1.0 ],
					"fontface" : [ 0 ],
					"fontname" : [ "Suisse Intl News" ],
					"fontsize" : [ 12.0 ],
					"selectioncolor" : [ 0.686, 0.888, 0.1803921569, 1.0 ],
					"textcolor_inverse" : [ 0.949999988079071, 0.949999988079071, 0.949999988079071, 1.0 ]
				}
,
				"button" : 				{
					"bgcolor" : [ 0.119999997317791, 0.119999997317791, 0.119999997317791, 1.0 ],
					"color" : [ 0.119999997317791, 0.119999997317791, 0.119999997317791, 1.0 ],
					"elementcolor" : [ 0.349019607843137, 0.349019607843137, 0.349019607843137, 1.0 ]
				}
,
				"ezdac~" : 				{
					"bgcolor" : [ 0.119999997317791, 0.119999997317791, 0.119999997317791, 1.0 ],
					"color" : [ 0.119999997317791, 0.119999997317791, 0.119999997317791, 1.0 ],
					"elementcolor" : [ 0.043137254901961, 0.043137254901961, 0.043137254901961, 0.0 ]
				}
,
				"nodes" : 				{
					"bgcolor" : [ 0.0, 0.0, 0.0, 1.0 ],
					"color" : [ 0.0, 0.0, 0.0, 1.0 ],
					"elementcolor" : [ 0.043137254901961, 0.043137254901961, 0.043137254901961, 0.0 ],
					"fontface" : [ 0 ],
					"fontname" : [ "Suisse Intl News" ],
					"fontsize" : [ 12.0 ],
					"selectioncolor" : [ 0.686, 0.888, 0.1803921569, 1.0 ],
					"textcolor" : [ 0.0, 0.0, 0.0, 1.0 ]
				}
,
				"message" : 				{
					"bgfillcolor" : 					{
						"color" : [ 0.0, 0.0, 0.0, 1.0 ],
						"color1" : [ 0.0, 0.0, 0.0, 1.0 ],
						"color2" : [ 0.0, 0.0, 0.0, 1.0 ],
						"type" : "gradient"
					}
,
					"fontface" : [ 0 ],
					"fontname" : [ "Suisse Intl News" ],
					"fontsize" : [ 12.0 ],
					"textcolor_inverse" : [ 0.949999988079071, 0.949999988079071, 0.949999988079071, 1.0 ],
					"textjustification" : [ 0 ]
				}
,
				"umenu" : 				{
					"bgfillcolor" : 					{
						"color" : [ 0.0, 0.0, 0.0, 1.0 ],
						"color1" : [ 0.0, 0.0, 0.0, 1.0 ],
						"color2" : [ 0.0, 0.0, 0.0, 1.0 ],
						"type" : "color"
					}
,
					"color" : [ 0.119999997317791, 0.119999997317791, 0.119999997317791, 1.0 ],
					"elementcolor" : [ 0.043137254901961, 0.043137254901961, 0.043137254901961, 0.0 ],
					"fontface" : [ 0 ],
					"fontname" : [ "Suisse Intl News" ],
					"fontsize" : [ 12.0 ],
					"textcolor_inverse" : [ 0.949999988079071, 0.949999988079071, 0.949999988079071, 1.0 ],
					"textjustification" : [ 0 ]
				}
,
				"comment" : 				{
					"clearcolor" : [ 0.0, 0.0, 0.0, 0.0 ],
					"fontface" : [ 0 ],
					"fontname" : [ "Suisse Intl News" ],
					"fontsize" : [ 12.0 ],
					"textcolor" : [ 0.949999988079071, 0.949999988079071, 0.949999988079071, 1.0 ],
					"textjustification" : [ 0 ]
				}
,
				"parentstyle" : "",
				"multi" : 0
			}
, 			{
				"name" : "my_style_05",
				"default" : 				{
					"accentcolor" : [ 0.059999998658895, 0.059999998658895, 0.059999998658895, 1.0 ],
					"bgcolor" : [ 0.059999998658895, 0.059999998658895, 0.059999998658895, 1.0 ],
					"bgfillcolor" : 					{
						"angle" : 270.0,
						"autogradient" : 0.0,
						"color" : [ 0.25, 0.25, 0.25, 1.0 ],
						"color1" : [ 0.25, 0.25, 0.25, 1.0 ],
						"color2" : [ 0.25, 0.25, 0.25, 1.0 ],
						"proportion" : 0.5,
						"type" : "gradient"
					}
,
					"clearcolor" : [ 0.0, 0.0, 0.0, 0.0 ],
					"color" : [ 0.6102400085, 0.888, 0.1803921569, 1.0 ],
					"editing_bgcolor" : [ 0.75, 0.75, 0.75, 1.0 ],
					"elementcolor" : [ 0.25, 0.25, 0.25, 1.0 ],
					"fontface" : [ 0 ],
					"fontname" : [ "Suisse Intl News" ],
					"fontsize" : [ 11.0 ],
					"locked_bgcolor" : [ 0.75, 0.75, 0.75, 1.0 ],
					"patchlinecolor" : [ 0.25, 0.25, 0.25, 1.0 ],
					"selectioncolor" : [ 0.686, 0.888, 0.1803921569, 1.0 ],
					"stripecolor" : [ 0.119999997317791, 0.119999997317791, 0.119999997317791, 1.0 ],
					"textcolor" : [ 0.0, 0.0, 0.0, 1.0 ],
					"textcolor_inverse" : [ 0.949999988079071, 0.949999988079071, 0.949999988079071, 1.0 ],
					"textjustification" : [ 0 ]
				}
,
				"comment" : 				{
					"clearcolor" : [ 0.0, 0.0, 0.0, 0.0 ],
					"fontface" : [ 0 ],
					"fontname" : [ "Suisse Intl News" ],
					"textjustification" : [ 0 ]
				}
,
				"attrui" : 				{
					"fontface" : [ 0 ],
					"fontname" : [ "Suisse Intl News" ],
					"selectioncolor" : [ 0.686, 0.888, 0.1803921569, 1.0 ],
					"textcolor_inverse" : [ 0.949999988079071, 0.949999988079071, 0.949999988079071, 1.0 ],
					"textjustification" : [ 0 ]
				}
,
				"message" : 				{
					"fontface" : [ 0 ],
					"fontname" : [ "Suisse Intl News" ],
					"textcolor_inverse" : [ 0.949999988079071, 0.949999988079071, 0.949999988079071, 1.0 ],
					"textjustification" : [ 0 ]
				}
,
				"newobj" : 				{
					"fontface" : [ 0 ],
					"fontname" : [ "Suisse Intl News" ],
					"textcolor_inverse" : [ 0.949999988079071, 0.949999988079071, 0.949999988079071, 1.0 ],
					"textjustification" : [ 0 ]
				}
,
				"nodes" : 				{
					"fontface" : [ 0 ],
					"fontname" : [ "Suisse Intl News" ],
					"selectioncolor" : [ 0.686, 0.888, 0.1803921569, 1.0 ]
				}
,
				"number" : 				{
					"fontface" : [ 0 ],
					"fontname" : [ "Suisse Intl News" ],
					"selectioncolor" : [ 0.686, 0.888, 0.1803921569, 1.0 ],
					"textcolor_inverse" : [ 0.949999988079071, 0.949999988079071, 0.949999988079071, 1.0 ]
				}
,
				"umenu" : 				{
					"fontface" : [ 0 ],
					"fontname" : [ "Suisse Intl News" ],
					"textcolor_inverse" : [ 0.949999988079071, 0.949999988079071, 0.949999988079071, 1.0 ],
					"textjustification" : [ 0 ]
				}
,
				"parentstyle" : "",
				"multi" : 0
			}
, 			{
				"name" : "my_style_05-1",
				"default" : 				{
					"accentcolor" : [ 0.059999998658895, 0.059999998658895, 0.059999998658895, 1.0 ],
					"bgcolor" : [ 0.059999998658895, 0.059999998658895, 0.059999998658895, 1.0 ],
					"bgfillcolor" : 					{
						"angle" : 270.0,
						"autogradient" : 0.0,
						"color" : [ 0.25, 0.25, 0.25, 1.0 ],
						"color1" : [ 0.25, 0.25, 0.25, 1.0 ],
						"color2" : [ 0.25, 0.25, 0.25, 1.0 ],
						"proportion" : 0.5,
						"type" : "gradient"
					}
,
					"clearcolor" : [ 0.0, 0.0, 0.0, 0.0 ],
					"color" : [ 0.6102400085, 0.888, 0.1803921569, 1.0 ],
					"editing_bgcolor" : [ 0.75, 0.75, 0.75, 1.0 ],
					"elementcolor" : [ 0.25, 0.25, 0.25, 0.0 ],
					"fontface" : [ 0 ],
					"fontname" : [ "Suisse Intl News" ],
					"fontsize" : [ 11.0 ],
					"locked_bgcolor" : [ 0.75, 0.75, 0.75, 1.0 ],
					"patchlinecolor" : [ 0.25, 0.25, 0.25, 1.0 ],
					"selectioncolor" : [ 0.686, 0.888, 0.1803921569, 1.0 ],
					"stripecolor" : [ 0.119999997317791, 0.119999997317791, 0.119999997317791, 1.0 ],
					"textcolor" : [ 0.0, 0.0, 0.0, 1.0 ],
					"textcolor_inverse" : [ 0.949999988079071, 0.949999988079071, 0.949999988079071, 1.0 ],
					"textjustification" : [ 0 ]
				}
,
				"comment" : 				{
					"clearcolor" : [ 0.0, 0.0, 0.0, 0.0 ],
					"fontface" : [ 0 ],
					"fontname" : [ "Suisse Intl News" ],
					"textjustification" : [ 0 ]
				}
,
				"attrui" : 				{
					"fontface" : [ 0 ],
					"fontname" : [ "Suisse Intl News" ],
					"selectioncolor" : [ 0.686, 0.888, 0.1803921569, 1.0 ],
					"textcolor_inverse" : [ 0.949999988079071, 0.949999988079071, 0.949999988079071, 1.0 ],
					"textjustification" : [ 0 ]
				}
,
				"message" : 				{
					"fontface" : [ 0 ],
					"fontname" : [ "Suisse Intl News" ],
					"textcolor_inverse" : [ 0.949999988079071, 0.949999988079071, 0.949999988079071, 1.0 ],
					"textjustification" : [ 0 ]
				}
,
				"newobj" : 				{
					"fontface" : [ 0 ],
					"fontname" : [ "Suisse Intl News" ],
					"textcolor_inverse" : [ 0.949999988079071, 0.949999988079071, 0.949999988079071, 1.0 ],
					"textjustification" : [ 0 ]
				}
,
				"nodes" : 				{
					"fontface" : [ 0 ],
					"fontname" : [ "Suisse Intl News" ],
					"selectioncolor" : [ 0.686, 0.888, 0.1803921569, 1.0 ]
				}
,
				"number" : 				{
					"fontface" : [ 0 ],
					"fontname" : [ "Suisse Intl News" ],
					"selectioncolor" : [ 0.686, 0.888, 0.1803921569, 1.0 ],
					"textcolor_inverse" : [ 0.949999988079071, 0.949999988079071, 0.949999988079071, 1.0 ]
				}
,
				"umenu" : 				{
					"fontface" : [ 0 ],
					"fontname" : [ "Suisse Intl News" ],
					"textcolor_inverse" : [ 0.949999988079071, 0.949999988079071, 0.949999988079071, 1.0 ],
					"textjustification" : [ 0 ]
				}
,
				"parentstyle" : "",
				"multi" : 0
			}
 ],
		"editing_bgcolor" : [ 0.75, 0.75, 0.75, 1.0 ]
	}

}
